<svg xmlns="http://www.w3.org/2000/svg" width="1200" height="240" viewBox="0 0 1200 240" role="img" aria-label="Shreekumar B — AI builder">
  <defs>
    <linearGradient id="accent" x1="0" y1="0" x2="1" y2="0">
      <stop offset="0%" stop-color="#58a6ff"/>
      <stop offset="50%" stop-color="#bc8cff"/>
      <stop offset="100%" stop-color="#3fb950"/>
    </linearGradient>
    <linearGradient id="fade" x1="0" y1="0" x2="1" y2="0">
      <stop offset="0%" stop-color="#0d1117" stop-opacity="0"/>
      <stop offset="100%" stop-color="#0d1117" stop-opacity="1"/>
    </linearGradient>
    <pattern id="grid" width="24" height="24" patternUnits="userSpaceOnUse">
      <path d="M24 0H0V24" fill="none" stroke="#21262d" stroke-width="1"/>
    </pattern>
  </defs>

  <rect width="1200" height="240" fill="#0d1117"/>
  <rect width="1200" height="240" fill="url(#grid)" opacity="0.55"/>
  <rect x="700" width="500" height="240" fill="url(#fade)" opacity="0.7"/>
  <rect x="0" y="0" width="1200" height="3" fill="url(#accent)"/>

  <text x="64" y="96" font-family="ui-sans-serif,-apple-system,BlinkMacSystemFont,'Segoe UI',Helvetica,Arial,sans-serif" font-size="52" font-weight="700" fill="#e6edf3" letter-spacing="-1">Shreekumar B</text>
  <text x="64" y="132" font-family="ui-monospace,SFMono-Regular,'SF Mono',Menlo,Consolas,monospace" font-size="16" fill="#58a6ff">AI builder · Python developer · full-stack learner</text>
  <text x="64" y="172" font-family="ui-sans-serif,-apple-system,BlinkMacSystemFont,'Segoe UI',Helvetica,Arial,sans-serif" font-size="16" fill="#8b949e">Agents that do real work, and the systems that check them.</text>

  <g transform="translate(66,196)">
    <text x="0" y="0" font-family="ui-monospace,SFMono-Regular,'SF Mono',Menlo,Consolas,monospace" font-size="13" fill="#8b949e">build</text>
    <text x="46" y="0" font-family="ui-monospace,SFMono-Regular,'SF Mono',Menlo,Consolas,monospace" font-size="13" fill="#30363d">→</text>
    <text x="68" y="0" font-family="ui-monospace,SFMono-Regular,'SF Mono',Menlo,Consolas,monospace" font-size="13" fill="#8b949e">ship</text>
    <text x="106" y="0" font-family="ui-monospace,SFMono-Regular,'SF Mono',Menlo,Consolas,monospace" font-size="13" fill="#30363d">→</text>
    <text x="128" y="0" font-family="ui-monospace,SFMono-Regular,'SF Mono',Menlo,Consolas,monospace" font-size="13" fill="#8b949e">learn</text>
    <text x="176" y="0" font-family="ui-monospace,SFMono-Regular,'SF Mono',Menlo,Consolas,monospace" font-size="13" fill="#30363d">→</text>
    <text x="198" y="0" font-family="ui-monospace,SFMono-Regular,'SF Mono',Menlo,Consolas,monospace" font-size="13" fill="#8b949e">repeat</text>
  </g>

  <g transform="translate(880,120)" opacity="0.95">
    <circle cx="0" cy="0" r="88" fill="none" stroke="#30363d" stroke-width="1"/>
    <circle cx="0" cy="0" r="60" fill="none" stroke="#30363d" stroke-width="1"/>
    <circle cx="0" cy="0" r="32" fill="none" stroke="#30363d" stroke-width="1"/>
    <circle cx="0" cy="0" r="7" fill="#58a6ff"/>
    <circle cx="0" cy="-88" r="5" fill="#bc8cff"/>
    <circle cx="84" cy="26" r="5" fill="#3fb950"/>
    <circle cx="52" cy="-48" r="4" fill="#d29922"/>
    <circle cx="-60" cy="0" r="5" fill="#f778ba"/>
    <circle cx="-22" cy="24" r="4" fill="#3fb950"/>
    <line x1="0" y1="0" x2="0" y2="-88" stroke="#bc8cff" stroke-width="1.2" opacity="0.6"/>
    <line x1="0" y1="0" x2="84" y2="26" stroke="#3fb950" stroke-width="1.2" opacity="0.6"/>
    <line x1="0" y1="0" x2="52" y2="-48" stroke="#d29922" stroke-width="1.2" opacity="0.6"/>
    <line x1="0" y1="0" x2="-60" y2="0" stroke="#f778ba" stroke-width="1.2" opacity="0.6"/>
    <line x1="0" y1="0" x2="-22" y2="24" stroke="#3fb950" stroke-width="1.2" opacity="0.5"/>
  </g>
</svg>
